<?xml version="1.0" standalone="no"?><!DOCTYPE svg PUBLIC "-//W3C//DTD SVG 1.1//EN" "http://www.w3.org/Graphics/SVG/1.1/DTD/svg11.dtd"><svg t="1727236198725" class="icon" viewBox="0 0 1024 1024" version="1.1" xmlns="http://www.w3.org/2000/svg" p-id="5376" xmlns:xlink="http://www.w3.org/1999/xlink" width="200" height="200"><path d="M512 192c53.12 0 96 42.88 96 96s-42.88 96-96 96-96-42.88-96-96 42.88-96 96-96zM576 930.56c0 33.92-27.52 61.44-61.44 61.44h-5.12A61.44 61.44 0 0 1 448 930.56v-197.12c0-33.92 27.52-61.44 61.44-61.44h5.12c33.92 0 61.44 27.52 61.44 61.44v197.12z" fill="#E0EBFE" p-id="5377"></path><path d="M509.44 1024h5.12c51.52 0 93.44-41.92 93.44-93.44V864h32c52.928 0 96-43.072 96-96v-264.64c0-69.344-49.824-127.296-117.184-145.152C632.128 338.048 640 313.92 640 288c0-70.592-57.408-128-128-128s-128 57.408-128 128c0 25.92 7.872 50.016 21.184 70.208C337.824 376.064 288 434.048 288 503.36V768c0 52.928 43.072 96 96 96h32v66.56c0 51.52 41.92 93.44 93.44 93.44zM544 930.56a29.44 29.44 0 0 1-29.44 29.44h-5.12a29.44 29.44 0 0 1-29.44-29.44v-197.12a29.44 29.44 0 0 1 29.44-29.44h5.12a29.44 29.44 0 0 1 29.44 29.44v197.12zM512 224c35.296 0 64 28.704 64 64s-28.704 64-64 64-64-28.704-64-64 28.704-64 64-64z m-128 576c-17.632 0-32-14.368-32-32v-264.64c0-48.16 43.072-87.36 96-87.36h128c52.928 0 96 39.2 96 87.36V768c0 17.632-14.368 32-32 32h-32v-66.56c0-51.52-41.92-93.44-93.44-93.44h-5.12C457.92 640 416 681.92 416 733.44V800h-32zM192 288a32 32 0 0 0 32 32h96a32 32 0 0 0 0-64H224a32 32 0 0 0-32 32zM832 288a32 32 0 0 0-32-32h-96a32 32 0 0 0 0 64h96a32 32 0 0 0 32-32z" fill="#5465CF" p-id="5378"></path><path d="M512 0c-123.52 0-224 100.48-224 224a16 16 0 1 0 32 0c0-105.888 86.112-192 192-192s192 86.112 192 192a16 16 0 1 0 32 0c0-123.52-100.48-224-224-224zM560 512h64a16 16 0 1 0 0-32h-64a16 16 0 1 0 0 32z" fill="#5465CF" p-id="5379"></path></svg>